<svg width="24" height="24" viewBox="0 0 24 24" fill="none" xmlns="http://www.w3.org/2000/svg">
<path d="M5.55196 17.8381C6.55106 17.1669 7.57142 16.6473 8.61302 16.2794C9.65463 15.9114 10.7836 15.7274 12 15.7274C13.2164 15.7274 14.3472 15.9114 15.3924 16.2794C16.4376 16.6473 17.4597 17.1669 18.4588 17.8381C19.1871 17.0072 19.739 16.1057 20.1144 15.1336C20.4898 14.1615 20.6775 13.117 20.6775 12C20.6775 9.5668 19.8395 7.51225 18.1636 5.83635C16.4877 4.16045 14.4332 3.3225 12 3.3225C9.5668 3.3225 7.51225 4.16045 5.83635 5.83635C4.16045 7.51225 3.3225 9.5668 3.3225 12C3.3225 13.117 3.512 14.1615 3.891 15.1336C4.27001 16.1057 4.82366 17.0072 5.55196 17.8381ZM11.9967 12.6612C11.0452 12.6612 10.2443 12.3349 9.59381 11.6823C8.94333 11.0296 8.6181 10.2276 8.6181 9.27607C8.6181 8.3246 8.94442 7.52362 9.59707 6.87314C10.2497 6.22267 11.0518 5.89743 12.0033 5.89743C12.9548 5.89743 13.7557 6.22376 14.4062 6.87641C15.0567 7.52906 15.3819 8.33112 15.3819 9.2826C15.3819 10.2341 15.0556 11.0351 14.4029 11.6856C13.7503 12.336 12.9482 12.6612 11.9967 12.6612ZM11.9929 22C10.607 22 9.30502 21.7389 8.08691 21.2166C6.86882 20.6943 5.80915 19.9802 4.9079 19.0742C4.00664 18.1682 3.29667 17.109 2.778 15.8965C2.25933 14.684 2 13.3823 2 11.9912C2 10.6047 2.26114 9.30405 2.78342 8.08931C3.30569 6.87458 4.01981 5.81715 4.9258 4.91701C5.83176 4.01688 6.891 3.30569 8.10349 2.78342C9.31597 2.26114 10.6177 2 12.0088 2C13.3953 2 14.696 2.26114 15.9107 2.78342C17.1254 3.30569 18.1828 4.01688 19.083 4.91701C19.9831 5.81715 20.6943 6.87552 21.2166 8.09212C21.7389 9.3087 22 10.6098 22 11.9953C22 13.3854 21.7389 14.6862 21.2166 15.8978C20.6943 17.1094 19.9831 18.1682 19.083 19.0742C18.1828 19.9802 17.1237 20.6943 15.9056 21.2166C14.6875 21.7389 13.3833 22 11.9929 22Z" fill="#2A7F8C"/>
</svg>
