<svg width="26" height="26" viewBox="0 0 26 26" fill="none" xmlns="http://www.w3.org/2000/svg">
<path d="M15.1042 10.5583V9.13333C15.693 8.85973 16.3094 8.65453 16.9531 8.51772C17.5969 8.38091 18.2653 8.31251 18.9583 8.31251C19.3931 8.31251 19.8153 8.34341 20.225 8.40522C20.6347 8.46702 21.0458 8.54862 21.4583 8.65V10.0083C21.0528 9.86664 20.6497 9.76386 20.249 9.69996C19.8483 9.63608 19.4181 9.60414 18.9583 9.60414C18.2653 9.60414 17.5941 9.68643 16.9448 9.85101C16.2955 10.0156 15.6819 10.2514 15.1042 10.5583ZM15.1042 16.4958V15.05C15.6792 14.7764 16.2937 14.5712 16.9479 14.4344C17.6021 14.2976 18.2722 14.2292 18.9583 14.2292C19.3931 14.2292 19.8153 14.2601 20.225 14.3219C20.6347 14.3837 21.0458 14.4653 21.4583 14.5666V15.925C21.0528 15.7833 20.6497 15.6805 20.249 15.6166C19.8483 15.5527 19.4181 15.5208 18.9583 15.5208C18.2653 15.5208 17.5941 15.6038 16.9448 15.7698C16.2955 15.9357 15.6819 16.1777 15.1042 16.4958ZM15.1042 13.5375V12.0917C15.693 11.8181 16.3094 11.6128 16.9531 11.476C17.5969 11.3392 18.2653 11.2708 18.9583 11.2708C19.3931 11.2708 19.8153 11.3017 20.225 11.3635C20.6347 11.4253 21.0458 11.5069 21.4583 11.6083V12.9666C21.0528 12.825 20.6497 12.7222 20.249 12.6583C19.8483 12.5944 19.4181 12.5625 18.9583 12.5625C18.2653 12.5625 17.5941 12.6482 16.9448 12.8198C16.2955 12.9913 15.6819 13.2305 15.1042 13.5375ZM7.04167 17.3541C7.93891 17.3541 8.81183 17.4559 9.66044 17.6594C10.5091 17.8628 11.3514 18.1819 12.1875 18.6167V7.96666C11.4264 7.47083 10.6028 7.09896 9.71669 6.85104C8.83058 6.60312 7.93891 6.47916 7.04167 6.47916C6.39167 6.47916 5.78438 6.53019 5.2198 6.63226C4.65523 6.73435 4.07502 6.90136 3.47919 7.1333C3.39584 7.16109 3.33681 7.20103 3.30209 7.25312C3.26737 7.30521 3.25001 7.3625 3.25001 7.42499V17.6708C3.25001 17.768 3.28473 17.8392 3.35417 17.8844C3.42363 17.9295 3.50003 17.9347 3.58338 17.9C4.09725 17.725 4.63961 17.5903 5.21043 17.4958C5.78126 17.4014 6.39167 17.3541 7.04167 17.3541ZM13.8125 18.6167C14.6486 18.1819 15.491 17.8628 16.3396 17.6594C17.1882 17.4559 18.0611 17.3541 18.9583 17.3541C19.6083 17.3541 20.2188 17.4014 20.7896 17.4958C21.3604 17.5903 21.9028 17.725 22.4166 17.9C22.5 17.9347 22.5764 17.9295 22.6458 17.8844C22.7153 17.8392 22.75 17.768 22.75 17.6708V7.42499C22.75 7.3625 22.7326 7.30694 22.6979 7.25832C22.6632 7.2097 22.6042 7.16802 22.5208 7.1333C21.925 6.90136 21.3448 6.73435 20.7802 6.63226C20.2156 6.53019 19.6083 6.47916 18.9583 6.47916C18.0611 6.47916 17.1694 6.60312 16.2833 6.85104C15.3972 7.09896 14.5736 7.47083 13.8125 7.96666V18.6167ZM13 20.9999C12.1264 20.3555 11.184 19.8576 10.1729 19.5062C9.1618 19.1548 8.11806 18.9791 7.04167 18.9791C6.38057 18.9791 5.73127 19.0524 5.09379 19.1989C4.45628 19.3454 3.8417 19.561 3.25003 19.8458C2.86393 20.0235 2.49658 19.9954 2.14796 19.7614C1.79936 19.5274 1.62506 19.1958 1.62506 18.7666V7.00417C1.62506 6.77084 1.68512 6.55174 1.80525 6.34688C1.92539 6.14203 2.09866 5.99446 2.32506 5.90418C3.05838 5.54724 3.82261 5.28301 4.61774 5.11148C5.41287 4.93995 6.22085 4.85419 7.04167 4.85419C8.09585 4.85419 9.12571 4.99829 10.1313 5.28649C11.1368 5.57468 12.0931 6.00002 13 6.56252C13.907 6.00002 14.8632 5.57468 15.8688 5.28649C16.8743 4.99829 17.9042 4.85419 18.9583 4.85419C19.7792 4.85419 20.5871 4.93995 21.3823 5.11148C22.1774 5.28301 22.9416 5.54724 23.675 5.90418C23.9014 5.99446 24.0746 6.14203 24.1948 6.34688C24.3149 6.55174 24.375 6.77084 24.375 7.00417V18.7666C24.375 19.1958 24.1937 19.5239 23.8312 19.751C23.4687 19.9781 23.0875 20.0027 22.6875 19.8249C22.1027 19.5472 21.4968 19.3368 20.8698 19.1937C20.2427 19.0506 19.6056 18.9791 18.9583 18.9791C17.882 18.9791 16.8382 19.1548 15.8271 19.5062C14.816 19.8576 13.8736 20.3555 13 20.9999Z" fill="#0AB289"/>
</svg>
