<svg width="26" height="26" viewBox="0 0 26 26" fill="none" xmlns="http://www.w3.org/2000/svg">
<path d="M3.03131 22.9375L7.78127 9.6459L16.3229 18.1875L3.03131 22.9375ZM5.71042 20.2583L13.3479 17.55L8.41875 12.6208L5.71042 20.2583ZM15.1479 13.7625L14.2396 12.8542L20.1812 6.91254C20.7243 6.36948 21.3812 6.09796 22.152 6.09796C22.9229 6.09796 23.5798 6.36948 24.1229 6.91254L24.6479 7.43752L23.7604 8.34584L23.2354 7.82086C22.9409 7.52641 22.5833 7.37919 22.1625 7.37919C21.7416 7.37919 21.384 7.52641 21.0895 7.82086L15.1479 13.7625ZM11.1896 9.8042L10.2812 8.89591L10.9312 8.24591C11.2535 7.92367 11.4146 7.53338 11.4146 7.07504C11.4146 6.6167 11.2535 6.22642 10.9312 5.9042L10.2479 5.22086L11.1562 4.31254L11.8396 4.99588C12.4173 5.57366 12.7062 6.26671 12.7062 7.07504C12.7062 7.88337 12.4173 8.57642 11.8396 9.1542L11.1896 9.8042ZM13.1687 11.7834L12.2604 10.875L16.0354 7.10007C16.3298 6.80562 16.4771 6.44797 16.4771 6.02713C16.4771 5.60629 16.3298 5.24865 16.0354 4.9542L14.4271 3.34588L15.3354 2.43756L16.9437 4.04588C17.4937 4.59589 17.7687 5.2563 17.7687 6.02713C17.7687 6.79796 17.4937 7.45838 16.9437 8.00839L13.1687 11.7834ZM17.127 15.7417L16.2187 14.8334L17.5145 13.5376C18.0992 12.9528 18.8048 12.6605 19.6312 12.6605C20.4576 12.6605 21.1631 12.9528 21.7478 13.5376L23.0436 14.8334L22.1354 15.7417L20.8396 14.4459C20.5104 14.1167 20.1076 13.9521 19.6312 13.9521C19.1548 13.9521 18.752 14.1167 18.4228 14.4459L17.127 15.7417Z" fill="#0AB289"/>
</svg>
