<svg width="26" height="26" viewBox="0 0 26 26" fill="none" xmlns="http://www.w3.org/2000/svg">
<path d="M8.56248 23.2916C8.11248 23.2916 7.72915 23.1333 7.41249 22.8166C7.09584 22.5 6.93751 22.1166 6.93751 21.6667V20.5833C6.93751 19.7972 7.1191 19.0622 7.48229 18.3781C7.84549 17.6941 8.34585 17.1222 8.98336 16.6625L8.23334 11.75H6.16669C5.61948 11.75 5.15629 11.5604 4.77712 11.1812C4.39796 10.8021 4.20837 10.3389 4.20837 9.79168V5.75003C4.20837 5.20976 4.39969 4.7483 4.78232 4.36567C5.16496 3.98302 5.62641 3.79169 6.16669 3.79169H10.8333V2.83337H15.1666V3.79169H18.9729L17.0166 16.6625C17.6541 17.1222 18.1545 17.6941 18.5177 18.3781C18.8809 19.0622 19.0624 19.7972 19.0624 20.5833V21.6667C19.0624 22.1166 18.9041 22.5 18.5875 22.8166C18.2708 23.1333 17.8875 23.2916 17.4375 23.2916H8.56248ZM7.99167 10.125L7.26876 5.41666H6.16669C6.08336 5.41666 6.00697 5.45138 5.93751 5.52083C5.86807 5.59029 5.83335 5.66669 5.83335 5.75003V9.79168C5.83335 9.875 5.86807 9.9514 5.93751 10.0209C6.00697 10.0903 6.08336 10.125 6.16669 10.125H7.99167ZM13 20.4583C13.2722 20.4583 13.5 20.3667 13.6833 20.1833C13.8666 20 13.9583 19.7722 13.9583 19.5C13.9583 19.2278 13.8666 19 13.6833 18.8167C13.5 18.6333 13.2722 18.5417 13 18.5417C12.7278 18.5417 12.5 18.6333 12.3166 18.8167C12.1333 19 12.0417 19.2278 12.0417 19.5C12.0417 19.7722 12.1333 20 12.3166 20.1833C12.5 20.3667 12.7278 20.4583 13 20.4583ZM10.4875 15.7084H15.5125L17.0792 5.41666H8.92079L10.4875 15.7084ZM8.56248 21.6667H17.4375V20.5833C17.4375 19.6806 17.1215 18.9132 16.4896 18.2812C15.8576 17.6493 15.0902 17.3333 14.1875 17.3333H11.8125C10.9097 17.3333 10.1423 17.6493 9.5104 18.2812C8.87845 18.9132 8.56248 19.6806 8.56248 20.5833V21.6667Z" fill="#0AB289"/>
</svg>
