<svg width="26" height="26" viewBox="0 0 26 26" fill="none" xmlns="http://www.w3.org/2000/svg">
<path d="M16.2813 23.2916V21.6667H20.25C20.3333 21.6667 20.4097 21.6319 20.4792 21.5625C20.5486 21.493 20.5833 21.4166 20.5833 21.3333V11.1667H5.41666V15.4375H3.79169V6.83337C3.79169 6.28614 3.98127 5.82295 4.36044 5.44378C4.7396 5.06461 5.2028 4.87503 5.75003 4.87503H7.25004V2.58337H8.91667V4.87503H17.125V2.58337H18.75V4.87503H20.25C20.7972 4.87503 21.2604 5.06461 21.6396 5.44378C22.0187 5.82295 22.2083 6.28614 22.2083 6.83337V21.3333C22.2083 21.8805 22.0187 22.3437 21.6396 22.7229C21.2604 23.1021 20.7972 23.2916 20.25 23.2916H16.2813ZM8.66666 25.6146L7.53544 24.4833L10.5855 21.3958H1.35419V19.7709H10.5855L7.53544 16.6833L8.66666 15.5521L13.6979 20.5833L8.66666 25.6146ZM5.41666 9.54173H20.5833V6.83337C20.5833 6.75003 20.5486 6.67363 20.4792 6.60417C20.4097 6.53472 20.3333 6.5 20.25 6.5H5.75003C5.66669 6.5 5.59028 6.53472 5.52082 6.60417C5.45138 6.67363 5.41666 6.75003 5.41666 6.83337V9.54173Z" fill="#0AB289"/>
</svg>
