<svg width="26" height="26" viewBox="0 0 26 26" fill="none" xmlns="http://www.w3.org/2000/svg">
<path d="M1.63544 21.3333V17.2708C1.63544 16.7472 1.81287 16.3038 2.16773 15.9406C2.52258 15.5775 2.95278 15.3889 3.45834 15.375H6.7979C7.12429 15.375 7.43436 15.4549 7.7281 15.6146C8.02185 15.7743 8.26109 15.9972 8.44581 16.2834C8.98331 17.0222 9.64963 17.5972 10.4448 18.0084C11.2399 18.4195 12.0916 18.625 13 18.625C13.9194 18.625 14.7785 18.4195 15.5771 18.0084C16.3757 17.5972 17.0382 17.0222 17.5646 16.2834C17.7715 15.9972 18.0191 15.7743 18.3073 15.6146C18.5955 15.4549 18.8937 15.375 19.2021 15.375H22.5416C23.0583 15.3889 23.493 15.5775 23.8458 15.9406C24.1986 16.3038 24.375 16.7472 24.375 17.2708V21.3333H17.3333V18.7854C16.7153 19.2576 16.0389 19.6198 15.3042 19.8719C14.5694 20.1239 13.8014 20.25 13 20.25C12.2166 20.25 11.4566 20.1229 10.7198 19.8687C9.98297 19.6146 9.30207 19.2514 8.67708 18.7792V21.3333H1.63544ZM13 17.125C12.3486 17.125 11.7316 16.974 11.1489 16.6719C10.5663 16.3698 10.0778 15.9528 9.68333 15.4208C9.40417 15.0181 9.0639 14.6892 8.66251 14.4344C8.26111 14.1795 7.82431 14.0243 7.35211 13.9688C7.81184 13.4049 8.61496 12.967 9.76147 12.6552C10.908 12.3434 11.9875 12.1875 13 12.1875C14.0125 12.1875 15.092 12.3434 16.2385 12.6552C17.385 12.967 18.1916 13.4049 18.6583 13.9688C18.1972 14.0243 17.7632 14.1795 17.3562 14.4344C16.9493 14.6892 16.6062 15.0181 16.3271 15.4208C15.9507 15.9708 15.4694 16.3924 14.8833 16.6854C14.2972 16.9785 13.6694 17.125 13 17.125ZM4.64583 13.875C3.8264 13.875 3.12502 13.5833 2.5417 13C1.95836 12.4167 1.66669 11.7153 1.66669 10.8959C1.66669 10.0584 1.95835 9.35247 2.54167 8.77816C3.12501 8.20386 3.8264 7.91672 4.64583 7.91672C5.48334 7.91672 6.18924 8.20386 6.76353 8.77816C7.33784 9.35247 7.625 10.0584 7.625 10.8959C7.625 11.7153 7.33784 12.4167 6.76353 13C6.18924 13.5833 5.48334 13.875 4.64583 13.875ZM21.3541 13.875C20.5347 13.875 19.8333 13.5833 19.25 13C18.6666 12.4167 18.375 11.7153 18.375 10.8959C18.375 10.0584 18.6666 9.35247 19.25 8.77816C19.8333 8.20386 20.5347 7.91672 21.3541 7.91672C22.1916 7.91672 22.8975 8.20386 23.4718 8.77816C24.0461 9.35247 24.3333 10.0584 24.3333 10.8959C24.3333 11.7153 24.0461 12.4167 23.4718 13C22.8975 13.5833 22.1916 13.875 21.3541 13.875ZM13 10.625C12.1806 10.625 11.4792 10.3333 10.8958 9.75002C10.3125 9.16668 10.0208 8.46529 10.0208 7.64586C10.0208 6.80837 10.3125 6.10247 10.8958 5.52816C11.4792 4.95386 12.1806 4.66672 13 4.66672C13.8375 4.66672 14.5434 4.95386 15.1177 5.52816C15.692 6.10247 15.9791 6.80837 15.9791 7.64586C15.9791 8.46529 15.692 9.16668 15.1177 9.75002C14.5434 10.3333 13.8375 10.625 13 10.625Z" fill="#0AB289"/>
</svg>
