<svg width="26" height="26" viewBox="0 0 26 26" fill="none" xmlns="http://www.w3.org/2000/svg">
<path d="M10.8333 12.6666C9.79066 12.6666 8.89804 12.2954 8.15551 11.5529C7.41298 10.8103 7.04171 9.9177 7.04171 8.87501C7.04171 7.83231 7.41298 6.93969 8.15551 6.19718C8.89804 5.45464 9.79066 5.08337 10.8333 5.08337C11.876 5.08337 12.7687 5.45464 13.5112 6.19718C14.2537 6.93969 14.625 7.83231 14.625 8.87501C14.625 9.9177 14.2537 10.8103 13.5112 11.5529C12.7687 12.2954 11.876 12.6666 10.8333 12.6666ZM2.70837 20.9166V18.5083C2.70837 17.9611 2.84796 17.4656 3.12714 17.0219C3.40629 16.5781 3.79587 16.2347 4.29586 15.9917C5.19588 15.5431 6.1681 15.1684 7.21252 14.8677C8.25696 14.567 9.46391 14.4167 10.8333 14.4167H11.15C11.2375 14.4167 11.332 14.4278 11.4334 14.45C11.3236 14.7056 11.233 14.966 11.1615 15.2313C11.0899 15.4965 11.0306 15.7667 10.9834 16.0416H10.8333C9.58612 16.0416 8.48196 16.185 7.52087 16.4719C6.55975 16.7587 5.73336 17.0819 5.04168 17.4416C4.79586 17.5736 4.61634 17.7278 4.50313 17.9041C4.38994 18.0805 4.33335 18.2819 4.33335 18.5083V19.2916H11.1583C11.2389 19.5666 11.3434 19.8458 11.4719 20.1291C11.6004 20.4124 11.7417 20.6749 11.8958 20.9166H2.70837ZM17.4479 21.7187L17.2063 20.2812C16.9479 20.2048 16.7049 20.1048 16.4771 19.9812C16.2493 19.8576 16.0327 19.7027 15.8271 19.5166L14.4542 19.9937L13.6834 18.6833L14.8042 17.7666C14.7264 17.4861 14.6876 17.2097 14.6876 16.9375C14.6876 16.6652 14.7264 16.3888 14.8042 16.1083L13.6938 15.1708L14.4646 13.8604L15.8271 14.3479C16.0257 14.1618 16.2407 14.0087 16.4719 13.8885C16.7031 13.7684 16.9479 13.6701 17.2063 13.5937L17.4479 12.1563H18.9895L19.2208 13.5937C19.4792 13.6701 19.7239 13.7712 19.9552 13.8969C20.1864 14.0226 20.4014 14.184 20.6 14.3812L21.9625 13.8604L22.7333 15.2041L21.6229 16.1416C21.7006 16.4022 21.7395 16.6735 21.7395 16.9558C21.7395 17.238 21.7006 17.5083 21.6229 17.7666L22.7437 18.6833L21.9729 19.9937L20.6 19.5166C20.3944 19.7027 20.1778 19.8576 19.95 19.9812C19.7222 20.1048 19.4792 20.2048 19.2208 20.2812L18.9895 21.7187H17.4479ZM18.2093 19C18.7767 19 19.2622 18.7979 19.6656 18.3938C20.0691 17.9897 20.2708 17.504 20.2708 16.9366C20.2708 16.3691 20.0688 15.8836 19.6647 15.4802C19.2606 15.0767 18.7749 14.875 18.2074 14.875C17.64 14.875 17.1545 15.077 16.7511 15.4811C16.3476 15.8852 16.1459 16.3709 16.1459 16.9384C16.1459 17.5058 16.3479 17.9913 16.752 18.3948C17.1561 18.7982 17.6418 19 18.2093 19ZM10.8333 11.0417C11.4292 11.0417 11.9393 10.8295 12.3636 10.4052C12.7879 9.98092 13 9.47085 13 8.87501C13 8.27918 12.7879 7.76911 12.3636 7.34481C11.9393 6.9205 11.4292 6.70835 10.8333 6.70835C10.2375 6.70835 9.72744 6.9205 9.30314 7.34481C8.87883 7.76911 8.66668 8.27918 8.66668 8.87501C8.66668 9.47085 8.87883 9.98092 9.30314 10.4052C9.72744 10.8295 10.2375 11.0417 10.8333 11.0417Z" fill="#0AB289"/>
</svg>
