<svg width="26" height="26" viewBox="0 0 26 26" fill="none" xmlns="http://www.w3.org/2000/svg">
<path d="M5.75003 22.2083C5.2028 22.2083 4.7396 22.0187 4.36044 21.6396C3.98127 21.2604 3.79169 20.7972 3.79169 20.25V5.75003C3.79169 5.2028 3.98127 4.7396 4.36044 4.36044C4.7396 3.98127 5.2028 3.79169 5.75003 3.79169H13.0104V5.41666H5.75003C5.66668 5.41666 5.59028 5.45138 5.52082 5.52082C5.45138 5.59028 5.41666 5.66669 5.41666 5.75003V20.25C5.41666 20.3333 5.45138 20.4097 5.52082 20.4792C5.59028 20.5486 5.66668 20.5833 5.75003 20.5833H13.0104V22.2083H5.75003ZM17.5833 17.6249L16.4584 16.45L19.0959 13.8125H9.85416V12.1875H19.0959L16.4584 9.55001L17.5833 8.37505L22.2083 13L17.5833 17.6249Z" fill="#0AB289"/>
</svg>
