<svg width="26" height="26" viewBox="0 0 26 26" fill="none" xmlns="http://www.w3.org/2000/svg">
<path d="M7.0417 10.9562L5.53126 11.7916C5.29932 11.9222 5.05974 11.9565 4.81252 11.8947C4.56531 11.8329 4.37642 11.686 4.24586 11.4541L2.49589 8.39166C2.36534 8.15972 2.33096 7.9184 2.39276 7.66772C2.45457 7.41702 2.60144 7.2264 2.83338 7.09585L8.52085 3.79169H10.125C10.3083 3.79169 10.4549 3.84655 10.5646 3.95627C10.6743 4.066 10.7292 4.21253 10.7292 4.39586V4.77086C10.7292 5.38753 10.9535 5.92017 11.4021 6.36878C11.8507 6.81738 12.3833 7.04169 13 7.04169C13.6167 7.04169 14.1493 6.81738 14.5979 6.36878C15.0465 5.92017 15.2708 5.38753 15.2708 4.77086V4.39586C15.2708 4.21253 15.3257 4.066 15.4354 3.95627C15.5451 3.84655 15.6917 3.79169 15.875 3.79169H17.4792L23.1666 7.09585C23.3986 7.2264 23.5454 7.41702 23.6072 7.66772C23.6691 7.9184 23.6347 8.15972 23.5041 8.39166L21.7541 11.4541C21.6236 11.686 21.4375 11.8301 21.1958 11.8864C20.9542 11.9427 20.7118 11.9055 20.4687 11.7749L18.9583 10.9728V21.25C18.9583 21.5222 18.8666 21.75 18.6833 21.9333C18.5 22.1166 18.2722 22.2083 18 22.2083H8.00004C7.72782 22.2083 7.50004 22.1166 7.3167 21.9333C7.13337 21.75 7.0417 21.5222 7.0417 21.25V10.9562ZM8.66667 8.23333V20.5833H17.3333V8.23333L20.6708 10.0646L21.7875 8.17916L17.1396 5.45H16.7958C16.6291 6.36388 16.1972 7.12846 15.5 7.74374C14.8028 8.35902 13.9694 8.66666 13 8.66666C12.0306 8.66666 11.1972 8.35902 10.5 7.74374C9.80281 7.12846 9.37086 6.36388 9.20419 5.45H8.86042L4.21252 8.17916L5.32916 10.0646L8.66667 8.23333Z" fill="#0AB289"/>
</svg>
