<svg width="26" height="26" viewBox="0 0 26 26" fill="none" xmlns="http://www.w3.org/2000/svg">
<path d="M4.39581 22.4791C3.85727 22.4791 3.39625 22.2874 3.01275 21.9039C2.62925 21.5204 2.4375 21.0594 2.4375 20.5208V3.9063L3.98122 5.45002L5.76872 3.63544L7.58331 5.45002L9.39789 3.63544L11.1854 5.45002L13 3.63544L14.8146 5.45002L16.6021 3.63544L18.4166 5.45002L20.2312 3.63544L22.0187 5.45002L23.5624 3.9063V20.5208C23.5624 21.0594 23.3707 21.5204 22.9872 21.9039C22.6037 22.2874 22.1427 22.4791 21.6041 22.4791H4.39581ZM4.39581 20.8542H12.1875V13.8125H4.06245V20.5208C4.06245 20.618 4.0937 20.6979 4.15621 20.7604C4.21872 20.8229 4.29859 20.8542 4.39581 20.8542ZM13.8124 20.8542H21.6041C21.7014 20.8542 21.7812 20.8229 21.8437 20.7604C21.9062 20.6979 21.9375 20.618 21.9375 20.5208V18.1458H13.8124V20.8542ZM13.8124 16.5208H21.9375V13.8125H13.8124V16.5208ZM4.06245 12.1875H21.9375V8.29163H4.06245V12.1875Z" fill="#0AB289"/>
</svg>
