<svg width="26" height="26" viewBox="0 0 26 26" fill="none" xmlns="http://www.w3.org/2000/svg">
<path d="M7.74998 23.3541C7.2236 23.3541 6.77604 23.1698 6.40729 22.801C6.03855 22.4323 5.85417 21.9847 5.85417 21.4583C5.85417 20.9319 6.03855 20.4844 6.40729 20.1156C6.77604 19.7469 7.2236 19.5625 7.74998 19.5625C8.27637 19.5625 8.72394 19.7469 9.09269 20.1156C9.46144 20.4844 9.64581 20.9319 9.64581 21.4583C9.64581 21.9847 9.46144 22.4323 9.09269 22.801C8.72394 23.1698 8.27637 23.3541 7.74998 23.3541ZM18.25 23.3541C17.7236 23.3541 17.276 23.1698 16.9073 22.801C16.5385 22.4323 16.3541 21.9847 16.3541 21.4583C16.3541 20.9319 16.5385 20.4844 16.9073 20.1156C17.276 19.7469 17.7236 19.5625 18.25 19.5625C18.7763 19.5625 19.2239 19.7469 19.5927 20.1156C19.9614 20.4844 20.1458 20.9319 20.1458 21.4583C20.1458 21.9847 19.9614 22.4323 19.5927 22.801C19.2239 23.1698 18.7763 23.3541 18.25 23.3541ZM6.51663 6.22917L9.26247 11.9792H16.6479C16.7104 11.9792 16.7659 11.9636 16.8146 11.9323C16.8632 11.901 16.9048 11.8576 16.9396 11.8021L19.8458 6.52083C19.8875 6.44444 19.8909 6.37673 19.8562 6.31771C19.8215 6.25866 19.7625 6.22914 19.6791 6.22914L6.51663 6.22917ZM5.73747 4.60423H20.7791C21.2221 4.60423 21.5572 4.79276 21.7843 5.16983C22.0114 5.54692 22.0221 5.93199 21.8166 6.32505L18.3458 12.6125C18.168 12.925 17.9329 13.1684 17.6406 13.3427C17.3482 13.517 17.0277 13.6041 16.6791 13.6041H8.77497L7.5208 15.8958C7.46524 15.9792 7.46351 16.0694 7.5156 16.1667C7.56769 16.2639 7.64581 16.3125 7.74998 16.3125H20.1458V17.9375H7.74998C7.02777 17.9375 6.48507 17.626 6.12186 17.0031C5.75868 16.3802 5.74583 15.7583 6.08332 15.1375L7.62919 12.3583L3.6875 4.06248H1.625V2.43753H4.7083L5.73747 4.6042V4.60423Z" fill="#0AB289"/>
</svg>
