<svg width="24" height="24" viewBox="0 0 24 24" fill="none" xmlns="http://www.w3.org/2000/svg">
<path d="M17.2338 12V18.4615H4.57846V5.53847H9.11723C9.16246 4.88308 9.31569 4.26462 9.55107 3.69231H4.57753C3.58153 3.69231 2.76923 4.52308 2.76923 5.53847V18.4615C2.76923 19.4769 3.58246 20.3077 4.57753 20.3077H17.2338C18.228 20.3077 19.0421 19.4769 19.0421 18.4615V13.8462L17.2338 12ZM15.8788 16.6154H5.93353L8.41938 13.3569L10.1917 15.5354L12.6785 12.2677L15.8788 16.6154ZM18.4098 8.20616C18.8077 7.56001 19.0431 6.81231 19.0431 6.00001C19.0431 3.70155 17.2255 1.84616 14.9741 1.84616C12.7228 1.84616 10.9061 3.70155 10.9061 6.00001C10.9061 8.29847 12.7237 10.1539 14.9649 10.1539C15.7606 10.1539 16.5028 9.91385 17.1258 9.5077L19.9468 12.3877L21.2308 11.0769L18.4098 8.20616ZM14.9741 8.3077C13.7271 8.3077 12.7145 7.27385 12.7145 6.00001C12.7145 4.72616 13.7261 3.69231 14.9741 3.69231C16.2221 3.69231 17.2348 4.72616 17.2348 6.00001C17.2348 7.27385 16.2221 8.3077 14.9741 8.3077Z" fill="#0AB289"/>
</svg>
