<svg width="80" height="44" viewBox="0 0 80 44" fill="none" xmlns="http://www.w3.org/2000/svg">
<path d="M0 6.308C0 3.354 1.582 1.492 4.438 1.492C5.572 1.492 6.328 1.786 6.832 2.29L7.21 1.618H7.784C7.784 1.618 7.518 2.948 7.518 3.55V4.544H6.832V3.942C6.832 2.85 5.922 2.08 4.55 2.08C2.268 2.08 1.834 4.25 1.834 6.364C1.834 8.576 2.31 10.55 4.55 10.55C5.992 10.55 6.874 9.71 7.168 8.338L7.84 8.45C7.518 9.878 6.664 11.138 4.354 11.138C1.442 11.138 0 9.122 0 6.308Z" fill="#1A5962"/>
<path d="M0 6.308C0 3.354 1.582 1.492 4.438 1.492C5.572 1.492 6.328 1.786 6.832 2.29L7.21 1.618H7.784C7.784 1.618 7.518 2.948 7.518 3.55V4.544H6.832V3.942C6.832 2.85 5.922 2.08 4.55 2.08C2.268 2.08 1.834 4.25 1.834 6.364C1.834 8.576 2.31 10.55 4.55 10.55C5.992 10.55 6.874 9.71 7.168 8.338L7.84 8.45C7.518 9.878 6.664 11.138 4.354 11.138C1.442 11.138 0 9.122 0 6.308Z" fill="url(#paint0_linear_1027_24414)" fill-opacity="0.3"/>
<path d="M8.84275 7.82C8.84275 5.664 9.83675 4.418 12.0068 4.418C14.1908 4.418 15.1428 5.608 15.1428 7.736C15.1428 9.976 13.9528 11.138 12.0068 11.138C9.89275 11.138 8.84275 9.906 8.84275 7.82ZM12.0068 10.648C13.1547 10.648 13.5048 9.626 13.5048 7.736C13.5048 5.888 13.1547 4.908 12.0068 4.908C10.8728 4.908 10.4808 5.916 10.4808 7.82C10.4808 9.654 10.8588 10.648 12.0068 10.648Z" fill="#1A5962"/>
<path d="M8.84275 7.82C8.84275 5.664 9.83675 4.418 12.0068 4.418C14.1908 4.418 15.1428 5.608 15.1428 7.736C15.1428 9.976 13.9528 11.138 12.0068 11.138C9.89275 11.138 8.84275 9.906 8.84275 7.82ZM12.0068 10.648C13.1547 10.648 13.5048 9.626 13.5048 7.736C13.5048 5.888 13.1547 4.908 12.0068 4.908C10.8728 4.908 10.4808 5.916 10.4808 7.82C10.4808 9.654 10.8588 10.648 12.0068 10.648Z" fill="url(#paint1_linear_1027_24414)" fill-opacity="0.3"/>
<path d="M16.0712 10.942V10.396H17.1492V5.16H15.9452V4.614H18.6052V6.182H18.6332C18.7592 5.804 19.2352 4.418 20.9432 4.418C22.2312 4.418 22.9732 5.034 22.9732 6.406V10.396H24.0372V10.942H20.4952V10.396H21.4192V6.392C21.4192 5.468 21.1812 5.132 20.5652 5.132C19.2352 5.132 18.7032 7.232 18.7032 8.422V10.396H19.6132V10.942H16.0712Z" fill="#1A5962"/>
<path d="M16.0712 10.942V10.396H17.1492V5.16H15.9452V4.614H18.6052V6.182H18.6332C18.7592 5.804 19.2352 4.418 20.9432 4.418C22.2312 4.418 22.9732 5.034 22.9732 6.406V10.396H24.0372V10.942H20.4952V10.396H21.4192V6.392C21.4192 5.468 21.1812 5.132 20.5652 5.132C19.2352 5.132 18.7032 7.232 18.7032 8.422V10.396H19.6132V10.942H16.0712Z" fill="url(#paint2_linear_1027_24414)" fill-opacity="0.3"/>
<path d="M24.7585 11.068C24.7585 11.068 24.8425 10.34 24.8425 9.738V8.59H25.4865V9.052C25.4865 9.794 26.2145 10.592 27.3905 10.592C28.0625 10.592 28.5665 10.326 28.5665 9.668C28.5665 7.918 24.8425 8.982 24.8425 6.434C24.8425 5.02 26.0465 4.418 27.2645 4.418C28.0765 4.418 28.5805 4.684 28.9585 5.048L29.1265 4.488H29.7005C29.7005 4.488 29.5185 5.454 29.5185 5.818V6.644H28.8885V6.336C28.8885 5.72 28.3705 4.978 27.2925 4.978C26.6345 4.978 26.1585 5.23 26.1585 5.846C26.1585 7.568 29.9105 6.56 29.9105 9.038C29.9105 10.284 28.9585 11.138 27.4045 11.138C26.3545 11.138 25.7945 10.746 25.5005 10.438L25.3605 11.068H24.7585Z" fill="#1A5962"/>
<path d="M24.7585 11.068C24.7585 11.068 24.8425 10.34 24.8425 9.738V8.59H25.4865V9.052C25.4865 9.794 26.2145 10.592 27.3905 10.592C28.0625 10.592 28.5665 10.326 28.5665 9.668C28.5665 7.918 24.8425 8.982 24.8425 6.434C24.8425 5.02 26.0465 4.418 27.2645 4.418C28.0765 4.418 28.5805 4.684 28.9585 5.048L29.1265 4.488H29.7005C29.7005 4.488 29.5185 5.454 29.5185 5.818V6.644H28.8885V6.336C28.8885 5.72 28.3705 4.978 27.2925 4.978C26.6345 4.978 26.1585 5.23 26.1585 5.846C26.1585 7.568 29.9105 6.56 29.9105 9.038C29.9105 10.284 28.9585 11.138 27.4045 11.138C26.3545 11.138 25.7945 10.746 25.5005 10.438L25.3605 11.068H24.7585Z" fill="url(#paint3_linear_1027_24414)" fill-opacity="0.3"/>
<path d="M31.7045 9.15V5.16H30.5145V4.614H33.2725V9.234C33.2725 10.074 33.4825 10.424 34.0565 10.424C35.3725 10.424 35.9045 8.338 35.9045 7.134V5.16H34.8545V4.614H37.4725V10.396H38.5365V10.942H36.0165V9.374H35.9885C35.8485 9.752 35.3865 11.138 33.6785 11.138C32.4325 11.138 31.7045 10.522 31.7045 9.15Z" fill="#1A5962"/>
<path d="M31.7045 9.15V5.16H30.5145V4.614H33.2725V9.234C33.2725 10.074 33.4825 10.424 34.0565 10.424C35.3725 10.424 35.9045 8.338 35.9045 7.134V5.16H34.8545V4.614H37.4725V10.396H38.5365V10.942H36.0165V9.374H35.9885C35.8485 9.752 35.3865 11.138 33.6785 11.138C32.4325 11.138 31.7045 10.522 31.7045 9.15Z" fill="url(#paint4_linear_1027_24414)" fill-opacity="0.3"/>
<path d="M38.9403 10.942V10.396H40.0043V1.436H38.8143V0.89H41.5723V10.396H42.6503V10.942H38.9403Z" fill="#1A5962"/>
<path d="M38.9403 10.942V10.396H40.0043V1.436H38.8143V0.89H41.5723V10.396H42.6503V10.942H38.9403Z" fill="url(#paint5_linear_1027_24414)" fill-opacity="0.3"/>
<path d="M44.0493 9.22V5.16H43.0412V4.614H44.0633C44.3993 4.096 44.7213 3.368 44.8473 2.584H45.6172V4.614H47.3392V5.16H45.6172V9.234C45.6172 9.934 45.7712 10.312 46.2472 10.312C46.5692 10.312 46.8912 10.144 47.1572 9.444L47.7033 9.668C47.4093 10.34 47.0033 11.082 45.7993 11.082C44.6793 11.082 44.0493 10.424 44.0493 9.22Z" fill="#1A5962"/>
<path d="M44.0493 9.22V5.16H43.0412V4.614H44.0633C44.3993 4.096 44.7213 3.368 44.8473 2.584H45.6172V4.614H47.3392V5.16H45.6172V9.234C45.6172 9.934 45.7712 10.312 46.2472 10.312C46.5692 10.312 46.8912 10.144 47.1572 9.444L47.7033 9.668C47.4093 10.34 47.0033 11.082 45.7993 11.082C44.6793 11.082 44.0493 10.424 44.0493 9.22Z" fill="url(#paint6_linear_1027_24414)" fill-opacity="0.3"/>
<path d="M48.1881 9.472C48.1881 7.904 50.1901 7.358 51.9961 7.358V6.112C51.9961 5.272 51.7721 4.908 50.9461 4.908C50.1061 4.908 49.8121 5.286 49.8121 6.07C49.8121 6.294 49.8261 6.49 49.8541 6.714C48.8741 6.756 48.4541 6.308 48.4541 5.748C48.4541 4.936 49.3921 4.418 51.0441 4.418C52.8221 4.418 53.5641 4.978 53.5641 6.42V9.864C53.5641 10.2 53.6621 10.368 53.8441 10.368C54.2221 10.368 54.3901 9.752 54.4461 9.542L54.9921 9.71C54.8801 10.228 54.4601 11.082 53.4661 11.082C52.8081 11.082 52.3181 10.76 52.1921 10.074H52.1641C51.8001 10.592 51.1981 11.138 50.1901 11.138C49.1821 11.138 48.1881 10.592 48.1881 9.472ZM49.8121 9.472C49.8121 10.116 50.0781 10.466 50.5541 10.466C51.2401 10.466 51.9961 9.696 51.9961 8.968V7.946C50.5121 7.946 49.8121 8.408 49.8121 9.472Z" fill="#1A5962"/>
<path d="M48.1881 9.472C48.1881 7.904 50.1901 7.358 51.9961 7.358V6.112C51.9961 5.272 51.7721 4.908 50.9461 4.908C50.1061 4.908 49.8121 5.286 49.8121 6.07C49.8121 6.294 49.8261 6.49 49.8541 6.714C48.8741 6.756 48.4541 6.308 48.4541 5.748C48.4541 4.936 49.3921 4.418 51.0441 4.418C52.8221 4.418 53.5641 4.978 53.5641 6.42V9.864C53.5641 10.2 53.6621 10.368 53.8441 10.368C54.2221 10.368 54.3901 9.752 54.4461 9.542L54.9921 9.71C54.8801 10.228 54.4601 11.082 53.4661 11.082C52.8081 11.082 52.3181 10.76 52.1921 10.074H52.1641C51.8001 10.592 51.1981 11.138 50.1901 11.138C49.1821 11.138 48.1881 10.592 48.1881 9.472ZM49.8121 9.472C49.8121 10.116 50.0781 10.466 50.5541 10.466C51.2401 10.466 51.9961 9.696 51.9961 8.968V7.946C50.5121 7.946 49.8121 8.408 49.8121 9.472Z" fill="url(#paint7_linear_1027_24414)" fill-opacity="0.3"/>
<path d="M55.2548 10.942V10.396H56.3328V5.16H55.1288V4.614H57.7888V6.182H57.8168C57.9428 5.804 58.4188 4.418 60.1268 4.418C61.4148 4.418 62.1568 5.034 62.1568 6.406V10.396H63.2208V10.942H59.6788V10.396H60.6028V6.392C60.6028 5.468 60.3648 5.132 59.7488 5.132C58.4188 5.132 57.8868 7.232 57.8868 8.422V10.396H58.7968V10.942H55.2548Z" fill="#1A5962"/>
<path d="M55.2548 10.942V10.396H56.3328V5.16H55.1288V4.614H57.7888V6.182H57.8168C57.9428 5.804 58.4188 4.418 60.1268 4.418C61.4148 4.418 62.1568 5.034 62.1568 6.406V10.396H63.2208V10.942H59.6788V10.396H60.6028V6.392C60.6028 5.468 60.3648 5.132 59.7488 5.132C58.4188 5.132 57.8868 7.232 57.8868 8.422V10.396H58.7968V10.942H55.2548Z" fill="url(#paint8_linear_1027_24414)" fill-opacity="0.3"/>
<path d="M64.516 9.22V5.16H63.508V4.614H64.53C64.866 4.096 65.188 3.368 65.314 2.584H66.084V4.614H67.806V5.16H66.084V9.234C66.084 9.934 66.2381 10.312 66.7141 10.312C67.0361 10.312 67.358 10.144 67.624 9.444L68.17 9.668C67.876 10.34 67.47 11.082 66.266 11.082C65.146 11.082 64.516 10.424 64.516 9.22Z" fill="#1A5962"/>
<path d="M64.516 9.22V5.16H63.508V4.614H64.53C64.866 4.096 65.188 3.368 65.314 2.584H66.084V4.614H67.806V5.16H66.084V9.234C66.084 9.934 66.2381 10.312 66.7141 10.312C67.0361 10.312 67.358 10.144 67.624 9.444L68.17 9.668C67.876 10.34 67.47 11.082 66.266 11.082C65.146 11.082 64.516 10.424 64.516 9.22Z" fill="url(#paint9_linear_1027_24414)" fill-opacity="0.3"/>
<path d="M69.2569 4.95L68.9489 4.502C69.6769 4.054 70.1809 3.536 70.1809 2.948C70.1809 2.416 69.7329 2.01 68.8789 1.87C68.9629 1.254 69.3129 0.75 70.0129 0.75C70.7269 0.75 71.1609 1.394 71.1609 2.136C71.1609 3.368 70.4189 4.222 69.2569 4.95Z" fill="#1A5962"/>
<path d="M69.2569 4.95L68.9489 4.502C69.6769 4.054 70.1809 3.536 70.1809 2.948C70.1809 2.416 69.7329 2.01 68.8789 1.87C68.9629 1.254 69.3129 0.75 70.0129 0.75C70.7269 0.75 71.1609 1.394 71.1609 2.136C71.1609 3.368 70.4189 4.222 69.2569 4.95Z" fill="url(#paint10_linear_1027_24414)" fill-opacity="0.3"/>
<path d="M72.0768 11.068C72.0768 11.068 72.1608 10.34 72.1608 9.738V8.59H72.8048V9.052C72.8048 9.794 73.5328 10.592 74.7088 10.592C75.3808 10.592 75.8848 10.326 75.8848 9.668C75.8848 7.918 72.1608 8.982 72.1608 6.434C72.1608 5.02 73.3648 4.418 74.5828 4.418C75.3948 4.418 75.8988 4.684 76.2768 5.048L76.4448 4.488H77.0188C77.0188 4.488 76.8368 5.454 76.8368 5.818V6.644H76.2068V6.336C76.2068 5.72 75.6888 4.978 74.6108 4.978C73.9528 4.978 73.4768 5.23 73.4768 5.846C73.4768 7.568 77.2288 6.56 77.2288 9.038C77.2288 10.284 76.2768 11.138 74.7228 11.138C73.6728 11.138 73.1128 10.746 72.8188 10.438L72.6788 11.068H72.0768Z" fill="#1A5962"/>
<path d="M72.0768 11.068C72.0768 11.068 72.1608 10.34 72.1608 9.738V8.59H72.8048V9.052C72.8048 9.794 73.5328 10.592 74.7088 10.592C75.3808 10.592 75.8848 10.326 75.8848 9.668C75.8848 7.918 72.1608 8.982 72.1608 6.434C72.1608 5.02 73.3648 4.418 74.5828 4.418C75.3948 4.418 75.8988 4.684 76.2768 5.048L76.4448 4.488H77.0188C77.0188 4.488 76.8368 5.454 76.8368 5.818V6.644H76.2068V6.336C76.2068 5.72 75.6888 4.978 74.6108 4.978C73.9528 4.978 73.4768 5.23 73.4768 5.846C73.4768 7.568 77.2288 6.56 77.2288 9.038C77.2288 10.284 76.2768 11.138 74.7228 11.138C73.6728 11.138 73.1128 10.746 72.8188 10.438L72.6788 11.068H72.0768Z" fill="url(#paint11_linear_1027_24414)" fill-opacity="0.3"/>
<path d="M0.144406 24.6022C0.144406 22.649 0.305539 21.2135 0.627805 20.2955C0.95007 19.3775 1.30163 18.7037 1.68249 18.274C2.51257 17.3365 3.72351 16.8629 5.3153 16.8531C7.54187 16.8629 8.97741 17.8443 9.62195 19.7975C9.99304 20.9205 10.1786 22.4147 10.1786 24.2799V27.1363H7.20495V24.2652C7.20495 22.6149 7.11218 21.5016 6.92663 20.9254C6.75085 20.3395 6.53601 19.9537 6.2821 19.7682C6.0282 19.5729 5.70593 19.4752 5.3153 19.4752C4.50476 19.4752 3.94323 19.8609 3.63073 20.6324C3.328 21.3941 3.17663 22.6002 3.17663 24.2506V35.4127C3.17663 37.3658 3.31335 38.733 3.58679 39.5143C3.86999 40.2858 4.4071 40.6715 5.19812 40.6715C5.9989 40.6715 6.53113 40.2809 6.7948 39.4996C7.06823 38.7184 7.20495 37.3512 7.20495 35.3981V32.5416H10.2079V35.3688C10.2079 38.0738 9.83679 40.066 9.0946 41.3453C8.36218 42.6149 7.078 43.2496 5.24206 43.2496C3.40613 43.2496 2.09753 42.5953 1.31628 41.2867C0.535031 39.9684 0.144406 37.9859 0.144406 35.3395V24.6022Z" fill="#1A5962"/>
<path d="M0.144406 24.6022C0.144406 22.649 0.305539 21.2135 0.627805 20.2955C0.95007 19.3775 1.30163 18.7037 1.68249 18.274C2.51257 17.3365 3.72351 16.8629 5.3153 16.8531C7.54187 16.8629 8.97741 17.8443 9.62195 19.7975C9.99304 20.9205 10.1786 22.4147 10.1786 24.2799V27.1363H7.20495V24.2652C7.20495 22.6149 7.11218 21.5016 6.92663 20.9254C6.75085 20.3395 6.53601 19.9537 6.2821 19.7682C6.0282 19.5729 5.70593 19.4752 5.3153 19.4752C4.50476 19.4752 3.94323 19.8609 3.63073 20.6324C3.328 21.3941 3.17663 22.6002 3.17663 24.2506V35.4127C3.17663 37.3658 3.31335 38.733 3.58679 39.5143C3.86999 40.2858 4.4071 40.6715 5.19812 40.6715C5.9989 40.6715 6.53113 40.2809 6.7948 39.4996C7.06823 38.7184 7.20495 37.3512 7.20495 35.3981V32.5416H10.2079V35.3688C10.2079 38.0738 9.83679 40.066 9.0946 41.3453C8.36218 42.6149 7.078 43.2496 5.24206 43.2496C3.40613 43.2496 2.09753 42.5953 1.31628 41.2867C0.535031 39.9684 0.144406 37.9859 0.144406 35.3395V24.6022Z" fill="url(#paint12_linear_1027_24414)" fill-opacity="0.3"/>
<path d="M13.5917 24.1627C13.5917 21.233 14.119 19.2213 15.1737 18.1275C16.0038 17.2682 17.2098 16.8385 18.7919 16.8385C21.0966 16.8385 22.5712 17.7858 23.2157 19.6803C23.5966 20.8033 23.787 22.2975 23.787 24.1627V35.5299C23.787 38.2154 23.411 40.1734 22.6591 41.4039C21.9071 42.6246 20.5887 43.235 18.704 43.235C16.829 43.235 15.5057 42.6197 14.7343 41.3893C13.9725 40.1588 13.5917 38.2057 13.5917 35.5299V24.1627ZM20.7548 23.9869C20.7548 22.3365 20.6229 21.1695 20.3592 20.4859C20.0956 19.7926 19.5634 19.4459 18.7626 19.4459C17.9618 19.4459 17.4051 19.7975 17.0926 20.5006C16.7801 21.2037 16.6239 22.3609 16.6239 23.9723V35.5592C16.6239 37.5221 16.7606 38.86 17.0341 39.5729C17.3075 40.276 17.8592 40.6275 18.6893 40.6275C19.5194 40.6275 20.0712 40.2711 20.3446 39.5582C20.618 38.8356 20.7548 37.5025 20.7548 35.5592V23.9869Z" fill="#1A5962"/>
<path d="M13.5917 24.1627C13.5917 21.233 14.119 19.2213 15.1737 18.1275C16.0038 17.2682 17.2098 16.8385 18.7919 16.8385C21.0966 16.8385 22.5712 17.7858 23.2157 19.6803C23.5966 20.8033 23.787 22.2975 23.787 24.1627V35.5299C23.787 38.2154 23.411 40.1734 22.6591 41.4039C21.9071 42.6246 20.5887 43.235 18.704 43.235C16.829 43.235 15.5057 42.6197 14.7343 41.3893C13.9725 40.1588 13.5917 38.2057 13.5917 35.5299V24.1627ZM20.7548 23.9869C20.7548 22.3365 20.6229 21.1695 20.3592 20.4859C20.0956 19.7926 19.5634 19.4459 18.7626 19.4459C17.9618 19.4459 17.4051 19.7975 17.0926 20.5006C16.7801 21.2037 16.6239 22.3609 16.6239 23.9723V35.5592C16.6239 37.5221 16.7606 38.86 17.0341 39.5729C17.3075 40.276 17.8592 40.6275 18.6893 40.6275C19.5194 40.6275 20.0712 40.2711 20.3446 39.5582C20.618 38.8356 20.7548 37.5025 20.7548 35.5592V23.9869Z" fill="url(#paint13_linear_1027_24414)" fill-opacity="0.3"/>
<path d="M27.7128 17.1608H33.118C34.6512 17.1608 35.7548 17.4781 36.4286 18.1129C37.1024 18.7477 37.5077 19.8268 37.6444 21.3502C37.703 21.9752 37.7323 22.9518 37.7323 24.2799C37.7323 25.5983 37.5565 26.7066 37.205 27.6051C36.8632 28.5035 36.2528 29.0846 35.3739 29.3483C36.0184 29.4557 36.5067 29.7975 36.8387 30.3736C37.1708 30.94 37.4051 31.8483 37.5419 33.0983C37.6786 34.3385 37.7469 36.1891 37.7469 38.65C37.7469 41.1012 37.8251 42.5318 37.9813 42.942H34.9637C34.8075 42.6295 34.7294 39.734 34.7294 34.2555C34.7294 32.4098 34.5487 31.3404 34.1874 31.0475C33.826 30.7447 33.2792 30.5934 32.5467 30.5934L30.745 30.4908V42.942H27.7128V17.1608ZM34.7294 23.4742C34.7294 21.4918 34.5487 20.3443 34.1874 20.0318C33.8358 19.7193 33.3231 19.5631 32.6493 19.5631H30.745V28.2643H32.6786C33.2645 28.2643 33.6942 28.152 33.9676 27.9274C34.2411 27.7027 34.4364 27.2731 34.5536 26.6383C34.6708 26.0035 34.7294 25.0074 34.7294 23.65V23.4742Z" fill="#1A5962"/>
<path d="M27.7128 17.1608H33.118C34.6512 17.1608 35.7548 17.4781 36.4286 18.1129C37.1024 18.7477 37.5077 19.8268 37.6444 21.3502C37.703 21.9752 37.7323 22.9518 37.7323 24.2799C37.7323 25.5983 37.5565 26.7066 37.205 27.6051C36.8632 28.5035 36.2528 29.0846 35.3739 29.3483C36.0184 29.4557 36.5067 29.7975 36.8387 30.3736C37.1708 30.94 37.4051 31.8483 37.5419 33.0983C37.6786 34.3385 37.7469 36.1891 37.7469 38.65C37.7469 41.1012 37.8251 42.5318 37.9813 42.942H34.9637C34.8075 42.6295 34.7294 39.734 34.7294 34.2555C34.7294 32.4098 34.5487 31.3404 34.1874 31.0475C33.826 30.7447 33.2792 30.5934 32.5467 30.5934L30.745 30.4908V42.942H27.7128V17.1608ZM34.7294 23.4742C34.7294 21.4918 34.5487 20.3443 34.1874 20.0318C33.8358 19.7193 33.3231 19.5631 32.6493 19.5631H30.745V28.2643H32.6786C33.2645 28.2643 33.6942 28.152 33.9676 27.9274C34.2411 27.7027 34.4364 27.2731 34.5536 26.6383C34.6708 26.0035 34.7294 25.0074 34.7294 23.65V23.4742Z" fill="url(#paint14_linear_1027_24414)" fill-opacity="0.3"/>
<path d="M49.6415 17.1608H52.3221V42.942H50.0956L44.3094 25.2467L44.4852 31.7506V42.942H41.6874V17.1608H43.9725L49.9491 34.7096L49.6415 27.2535V17.1608Z" fill="#1A5962"/>
<path d="M49.6415 17.1608H52.3221V42.942H50.0956L44.3094 25.2467L44.4852 31.7506V42.942H41.6874V17.1608H43.9725L49.9491 34.7096L49.6415 27.2535V17.1608Z" fill="url(#paint15_linear_1027_24414)" fill-opacity="0.3"/>
<path d="M56.5409 17.1608H64.246V19.6803H59.5731V28.4986H63.9969V31.0182H59.5731V40.4225H64.3046V42.942H56.5409V17.1608Z" fill="#1A5962"/>
<path d="M56.5409 17.1608H64.246V19.6803H59.5731V28.4986H63.9969V31.0182H59.5731V40.4225H64.3046V42.942H56.5409V17.1608Z" fill="url(#paint16_linear_1027_24414)" fill-opacity="0.3"/>
<path d="M67.8495 17.1608H73.2548C74.788 17.1608 75.8915 17.4781 76.5653 18.1129C77.2391 18.7477 77.6444 19.8268 77.7811 21.3502C77.8397 21.9752 77.869 22.9518 77.869 24.2799C77.869 25.5983 77.6932 26.7066 77.3417 27.6051C76.9999 28.5035 76.3895 29.0846 75.5106 29.3483C76.1552 29.4557 76.6434 29.7975 76.9755 30.3736C77.3075 30.94 77.5419 31.8483 77.6786 33.0983C77.8153 34.3385 77.8837 36.1891 77.8837 38.65C77.8837 41.1012 77.9618 42.5318 78.118 42.942H75.1005C74.9442 42.6295 74.8661 39.734 74.8661 34.2555C74.8661 32.4098 74.6854 31.3404 74.3241 31.0475C73.9628 30.7447 73.4159 30.5934 72.6835 30.5934L70.8817 30.4908V42.942H67.8495V17.1608ZM74.8661 23.4742C74.8661 21.4918 74.6854 20.3443 74.3241 20.0318C73.9725 19.7193 73.4598 19.5631 72.786 19.5631H70.8817V28.2643H72.8153C73.4012 28.2643 73.8309 28.152 74.1044 27.9274C74.3778 27.7027 74.5731 27.2731 74.6903 26.6383C74.8075 26.0035 74.8661 25.0074 74.8661 23.65V23.4742Z" fill="#1A5962"/>
<path d="M67.8495 17.1608H73.2548C74.788 17.1608 75.8915 17.4781 76.5653 18.1129C77.2391 18.7477 77.6444 19.8268 77.7811 21.3502C77.8397 21.9752 77.869 22.9518 77.869 24.2799C77.869 25.5983 77.6932 26.7066 77.3417 27.6051C76.9999 28.5035 76.3895 29.0846 75.5106 29.3483C76.1552 29.4557 76.6434 29.7975 76.9755 30.3736C77.3075 30.94 77.5419 31.8483 77.6786 33.0983C77.8153 34.3385 77.8837 36.1891 77.8837 38.65C77.8837 41.1012 77.9618 42.5318 78.118 42.942H75.1005C74.9442 42.6295 74.8661 39.734 74.8661 34.2555C74.8661 32.4098 74.6854 31.3404 74.3241 31.0475C73.9628 30.7447 73.4159 30.5934 72.6835 30.5934L70.8817 30.4908V42.942H67.8495V17.1608ZM74.8661 23.4742C74.8661 21.4918 74.6854 20.3443 74.3241 20.0318C73.9725 19.7193 73.4598 19.5631 72.786 19.5631H70.8817V28.2643H72.8153C73.4012 28.2643 73.8309 28.152 74.1044 27.9274C74.3778 27.7027 74.5731 27.2731 74.6903 26.6383C74.8075 26.0035 74.8661 25.0074 74.8661 23.65V23.4742Z" fill="url(#paint17_linear_1027_24414)" fill-opacity="0.3"/>
<defs>
<linearGradient id="paint0_linear_1027_24414" x1="71.3281" y1="42.9424" x2="0.328127" y2="0.942385" gradientUnits="userSpaceOnUse">
<stop stop-color="#6BF1A0"/>
<stop offset="1" stop-color="#33A962" stop-opacity="0"/>
</linearGradient>
<linearGradient id="paint1_linear_1027_24414" x1="71.3281" y1="42.9424" x2="0.328127" y2="0.942385" gradientUnits="userSpaceOnUse">
<stop stop-color="#6BF1A0"/>
<stop offset="1" stop-color="#33A962" stop-opacity="0"/>
</linearGradient>
<linearGradient id="paint2_linear_1027_24414" x1="71.3281" y1="42.9424" x2="0.328127" y2="0.942385" gradientUnits="userSpaceOnUse">
<stop stop-color="#6BF1A0"/>
<stop offset="1" stop-color="#33A962" stop-opacity="0"/>
</linearGradient>
<linearGradient id="paint3_linear_1027_24414" x1="71.3281" y1="42.9424" x2="0.328127" y2="0.942385" gradientUnits="userSpaceOnUse">
<stop stop-color="#6BF1A0"/>
<stop offset="1" stop-color="#33A962" stop-opacity="0"/>
</linearGradient>
<linearGradient id="paint4_linear_1027_24414" x1="71.3281" y1="42.9424" x2="0.328127" y2="0.942385" gradientUnits="userSpaceOnUse">
<stop stop-color="#6BF1A0"/>
<stop offset="1" stop-color="#33A962" stop-opacity="0"/>
</linearGradient>
<linearGradient id="paint5_linear_1027_24414" x1="71.3281" y1="42.9424" x2="0.328127" y2="0.942385" gradientUnits="userSpaceOnUse">
<stop stop-color="#6BF1A0"/>
<stop offset="1" stop-color="#33A962" stop-opacity="0"/>
</linearGradient>
<linearGradient id="paint6_linear_1027_24414" x1="71.3281" y1="42.9424" x2="0.328127" y2="0.942385" gradientUnits="userSpaceOnUse">
<stop stop-color="#6BF1A0"/>
<stop offset="1" stop-color="#33A962" stop-opacity="0"/>
</linearGradient>
<linearGradient id="paint7_linear_1027_24414" x1="71.3281" y1="42.9424" x2="0.328127" y2="0.942385" gradientUnits="userSpaceOnUse">
<stop stop-color="#6BF1A0"/>
<stop offset="1" stop-color="#33A962" stop-opacity="0"/>
</linearGradient>
<linearGradient id="paint8_linear_1027_24414" x1="71.3281" y1="42.9424" x2="0.328127" y2="0.942385" gradientUnits="userSpaceOnUse">
<stop stop-color="#6BF1A0"/>
<stop offset="1" stop-color="#33A962" stop-opacity="0"/>
</linearGradient>
<linearGradient id="paint9_linear_1027_24414" x1="71.3281" y1="42.9424" x2="0.328127" y2="0.942385" gradientUnits="userSpaceOnUse">
<stop stop-color="#6BF1A0"/>
<stop offset="1" stop-color="#33A962" stop-opacity="0"/>
</linearGradient>
<linearGradient id="paint10_linear_1027_24414" x1="71.3281" y1="42.9424" x2="0.328127" y2="0.942385" gradientUnits="userSpaceOnUse">
<stop stop-color="#6BF1A0"/>
<stop offset="1" stop-color="#33A962" stop-opacity="0"/>
</linearGradient>
<linearGradient id="paint11_linear_1027_24414" x1="71.3281" y1="42.9424" x2="0.328127" y2="0.942385" gradientUnits="userSpaceOnUse">
<stop stop-color="#6BF1A0"/>
<stop offset="1" stop-color="#33A962" stop-opacity="0"/>
</linearGradient>
<linearGradient id="paint12_linear_1027_24414" x1="71.3281" y1="42.9424" x2="0.328127" y2="0.942385" gradientUnits="userSpaceOnUse">
<stop stop-color="#6BF1A0"/>
<stop offset="1" stop-color="#33A962" stop-opacity="0"/>
</linearGradient>
<linearGradient id="paint13_linear_1027_24414" x1="71.3281" y1="42.9424" x2="0.328127" y2="0.942385" gradientUnits="userSpaceOnUse">
<stop stop-color="#6BF1A0"/>
<stop offset="1" stop-color="#33A962" stop-opacity="0"/>
</linearGradient>
<linearGradient id="paint14_linear_1027_24414" x1="71.3281" y1="42.9424" x2="0.328127" y2="0.942385" gradientUnits="userSpaceOnUse">
<stop stop-color="#6BF1A0"/>
<stop offset="1" stop-color="#33A962" stop-opacity="0"/>
</linearGradient>
<linearGradient id="paint15_linear_1027_24414" x1="71.3281" y1="42.9424" x2="0.328127" y2="0.942385" gradientUnits="userSpaceOnUse">
<stop stop-color="#6BF1A0"/>
<stop offset="1" stop-color="#33A962" stop-opacity="0"/>
</linearGradient>
<linearGradient id="paint16_linear_1027_24414" x1="71.3281" y1="42.9424" x2="0.328127" y2="0.942385" gradientUnits="userSpaceOnUse">
<stop stop-color="#6BF1A0"/>
<stop offset="1" stop-color="#33A962" stop-opacity="0"/>
</linearGradient>
<linearGradient id="paint17_linear_1027_24414" x1="71.3281" y1="42.9424" x2="0.328127" y2="0.942385" gradientUnits="userSpaceOnUse">
<stop stop-color="#6BF1A0"/>
<stop offset="1" stop-color="#33A962" stop-opacity="0"/>
</linearGradient>
</defs>
</svg>
