<svg width="40" height="36" viewBox="0 0 40 36" fill="none" xmlns="http://www.w3.org/2000/svg">
<g clip-path="url(#clip0_1038_31507)">
<path d="M22.8661 10.2387L22.8529 10.2728C22.7327 10.6055 22.021 12.3126 20.0776 12.3126C18.0899 12.3126 17.4652 10.473 17.391 10.2294L17.3898 10.2262C17.3728 10.181 17.3628 10.1173 17.3624 10.1145L17.3525 10.0534H17.7544L17.7647 10.0931C17.7838 10.1677 18.2523 11.9155 20.0776 11.9155C21.9109 11.9155 22.4677 10.1801 22.4905 10.1063L22.5111 10.0483L22.6611 10.0544L22.9026 10.0518L22.8939 10.1237C22.8935 10.1265 22.8836 10.1923 22.8661 10.2387ZM20.1211 3C17.7851 3 15.8915 5.41865 15.8915 8.40161C15.8915 10.2967 16.6567 11.9636 17.8143 12.9273C18.4712 13.4871 18.8433 14.2736 18.8433 15.2581L18.6486 31.9376C18.6475 31.9536 18.6437 31.9689 18.6437 31.985V32.2953C18.6437 32.6829 18.9609 33 19.3485 33H20.6499C21.0375 33 21.3548 32.6829 21.3548 32.2953V31.985C21.3548 31.9572 21.3496 31.9307 21.3464 31.9037C21.3086 29.3626 21.0664 15.7976 21.0664 15.3395C21.0664 14.3708 21.6336 13.4927 22.4777 12.8866C23.6072 11.9167 24.3506 10.2698 24.3506 8.40161C24.3506 5.41865 22.4572 3 20.1211 3Z" fill="#1A5962"/>
<path d="M22.8661 10.2387L22.8529 10.2728C22.7327 10.6055 22.021 12.3126 20.0776 12.3126C18.0899 12.3126 17.4652 10.473 17.391 10.2294L17.3898 10.2262C17.3728 10.181 17.3628 10.1173 17.3624 10.1145L17.3525 10.0534H17.7544L17.7647 10.0931C17.7838 10.1677 18.2523 11.9155 20.0776 11.9155C21.9109 11.9155 22.4677 10.1801 22.4905 10.1063L22.5111 10.0483L22.6611 10.0544L22.9026 10.0518L22.8939 10.1237C22.8935 10.1265 22.8836 10.1923 22.8661 10.2387ZM20.1211 3C17.7851 3 15.8915 5.41865 15.8915 8.40161C15.8915 10.2967 16.6567 11.9636 17.8143 12.9273C18.4712 13.4871 18.8433 14.2736 18.8433 15.2581L18.6486 31.9376C18.6475 31.9536 18.6437 31.9689 18.6437 31.985V32.2953C18.6437 32.6829 18.9609 33 19.3485 33H20.6499C21.0375 33 21.3548 32.6829 21.3548 32.2953V31.985C21.3548 31.9572 21.3496 31.9307 21.3464 31.9037C21.3086 29.3626 21.0664 15.7976 21.0664 15.3395C21.0664 14.3708 21.6336 13.4927 22.4777 12.8866C23.6072 11.9167 24.3506 10.2698 24.3506 8.40161C24.3506 5.41865 22.4572 3 20.1211 3Z" fill="url(#paint0_linear_1038_31507)" fill-opacity="0.3"/>
<path d="M6.51501 26.4514H8.04664V15.5916H6.51501V15.3335H10.8348C14.2597 15.3335 15.3267 16.7792 15.3267 18.5862C15.3267 20.6687 13.8122 22.0284 11.4543 22.0284C11.0242 22.0284 10.8176 21.9939 10.8176 21.9939V21.7357C10.8176 21.7357 11.0585 21.7702 11.3339 21.7702C12.9517 21.7702 13.5196 20.4621 13.5196 18.6379C13.5196 16.7103 12.9517 15.5916 10.8176 15.5916H9.7333V26.4514H11.42V26.7095H6.51501V26.4514Z" fill="#1A5962"/>
<path d="M6.51501 26.4514H8.04664V15.5916H6.51501V15.3335H10.8348C14.2597 15.3335 15.3267 16.7792 15.3267 18.5862C15.3267 20.6687 13.8122 22.0284 11.4543 22.0284C11.0242 22.0284 10.8176 21.9939 10.8176 21.9939V21.7357C10.8176 21.7357 11.0585 21.7702 11.3339 21.7702C12.9517 21.7702 13.5196 20.4621 13.5196 18.6379C13.5196 16.7103 12.9517 15.5916 10.8176 15.5916H9.7333V26.4514H11.42V26.7095H6.51501V26.4514Z" fill="url(#paint1_linear_1038_31507)" fill-opacity="0.3"/>
<path d="M32.2709 16.3742C32.7766 16.3572 32.9284 15.9864 33.0971 15.4468H33.3162C33.3162 15.4468 32.9959 17.0823 32.9959 17.8073V18.802H32.7429V18.2794C32.7429 16.6608 31.4278 15.5818 29.6239 15.5818C26.7744 15.5818 26.2012 18.3468 26.2012 21.0445C26.2012 23.8601 26.8419 26.4567 29.4889 26.4567C30.2982 26.4567 30.9895 26.2543 31.5122 25.9171C32.4394 25.3102 32.9115 24.2479 32.9115 23.27H33.1813C33.1813 24.5176 32.3382 26.7095 29.4889 26.7095C26.4372 26.7095 24.3971 24.2647 24.3971 20.9602C24.3971 17.6218 26.5384 15.3288 29.6239 15.3288C30.8883 15.3288 31.7482 15.8009 32.2709 16.3742Z" fill="#1A5962"/>
<path d="M32.2709 16.3742C32.7766 16.3572 32.9284 15.9864 33.0971 15.4468H33.3162C33.3162 15.4468 32.9959 17.0823 32.9959 17.8073V18.802H32.7429V18.2794C32.7429 16.6608 31.4278 15.5818 29.6239 15.5818C26.7744 15.5818 26.2012 18.3468 26.2012 21.0445C26.2012 23.8601 26.8419 26.4567 29.4889 26.4567C30.2982 26.4567 30.9895 26.2543 31.5122 25.9171C32.4394 25.3102 32.9115 24.2479 32.9115 23.27H33.1813C33.1813 24.5176 32.3382 26.7095 29.4889 26.7095C26.4372 26.7095 24.3971 24.2647 24.3971 20.9602C24.3971 17.6218 26.5384 15.3288 29.6239 15.3288C30.8883 15.3288 31.7482 15.8009 32.2709 16.3742Z" fill="url(#paint2_linear_1038_31507)" fill-opacity="0.3"/>
</g>
<defs>
<linearGradient id="paint0_linear_1038_31507" x1="17.4003" y1="4.73091" x2="21.6642" y2="32.9487" gradientUnits="userSpaceOnUse">
<stop stop-color="#6BF1A0"/>
<stop offset="1" stop-color="#33A962" stop-opacity="0"/>
</linearGradient>
<linearGradient id="paint1_linear_1038_31507" x1="7.05441" y1="15.0473" x2="14.6312" y2="26.5558" gradientUnits="userSpaceOnUse">
<stop stop-color="#6BF1A0"/>
<stop offset="1" stop-color="#33A962" stop-opacity="0"/>
</linearGradient>
<linearGradient id="paint2_linear_1038_31507" x1="26.9632" y1="15.5773" x2="34.1302" y2="25.3127" gradientUnits="userSpaceOnUse">
<stop stop-color="#6BF1A0"/>
<stop offset="1" stop-color="#33A962" stop-opacity="0"/>
</linearGradient>
<clipPath id="clip0_1038_31507">
<rect width="27.0968" height="30" fill="white" transform="translate(6.45166 3)"/>
</clipPath>
</defs>
</svg>
